<?xml version="1.0" encoding="UTF-8"?>
<svg version="1.1" xmlns="http://www.w3.org/2000/svg" width="512" height="512">
<path d="M0 0 C2.28309591 1.92219297 4.52920582 3.88301281 6.75439453 5.87182617 C7.73537109 5.35233398 8.71634766 4.8328418 9.72705078 4.29760742 C26.05681511 -4.19974434 41.8512953 -9.53486219 60.44189453 -9.44067383 C62.16218872 -9.433302 62.16218872 -9.433302 63.91723633 -9.42578125 C90.09820644 -9.06495793 113.06442726 1.90701036 132.00439453 19.68432617 C147.12740505 35.60161246 156.63115337 57.13514475 158.75439453 78.87182617 C158.69251953 79.91725586 158.63064453 80.96268555 158.56689453 82.03979492 C158.42897618 85.44034417 158.49388288 87.69587511 159.75439453 90.87182617 C163.18888862 93.59023052 166.76405636 95.51012848 170.62548828 97.54370117 C188.63012241 107.20084632 200.95911475 126.94180411 207.10205078 145.85620117 C212.61273451 164.58067491 213.28685681 186.16859195 206.00439453 204.55932617 C204.71691063 207.97115852 204.47681819 208.64956467 205.75439453 211.87182617 C207.26693915 213.55888369 207.26693915 213.55888369 209.19189453 215.18432617 C217.40713799 223.1640071 223.29793233 232.97649376 227.69189453 243.49682617 C227.96203369 244.13998779 228.23217285 244.78314941 228.51049805 245.44580078 C232.9406816 256.73372336 234.31445345 267.93023767 234.25439453 279.99682617 C234.25125244 281.01113205 234.25125244 281.01113205 234.24804688 282.04592896 C234.07253584 309.63325676 223.40046451 331.80451478 203.90844727 351.21044922 C185.29763113 368.95514557 159.95601187 376.67301016 134.62939453 376.11791992 C121.14177952 375.5817232 109.1518385 372.02769452 96.75439453 366.87182617 C96.90585937 367.44924561 97.05732422 368.02666504 97.21337891 368.62158203 C105.68182719 401.50847525 105.68182719 401.50847525 97.58642578 415.34838867 C91.68413337 423.47819869 83.66285664 428.26586748 73.75439453 429.87182617 C63.64797544 430.67909774 54.56328757 429.21634248 46.57080078 422.66088867 C39.42283589 415.62052755 37.1077377 407.59979179 34.86376953 398.10229492 C30.33365848 379.08681613 22.60458419 363.74171738 8.75439453 349.87182617 C7.65804687 348.75807617 7.65804687 348.75807617 6.53955078 347.62182617 C-2.77918487 338.73692365 -15.65570831 331.7232509 -28.24560547 328.87182617 C-32.86687587 329.1347303 -35.57434389 330.4672198 -39.30810547 333.12182617 C-57.70889331 345.27282004 -81.85296594 348.39104446 -103.26123047 344.12182617 C-127.11440711 338.84798842 -147.92321043 325.59134308 -161.24560547 304.87182617 C-172.24560547 285.87641333 -172.24560547 285.87641333 -172.24560547 276.87182617 C-172.82342773 277.03263672 -173.40125 277.19344727 -173.99658203 277.35913086 C-195.36214926 282.2297009 -219.32555746 273.83440982 -237.24560547 262.87182617 C-240.78934344 260.41365153 -244.03599151 257.75028948 -247.24560547 254.87182617 C-248.14021484 254.07131836 -249.03482422 253.27081055 -249.95654297 252.44604492 C-267.17496105 236.16812866 -277.45494518 214.4828383 -278.62841797 190.76245117 C-279.39017523 163.49693789 -271.47665216 140.49651748 -253.24560547 119.87182617 C-252.69388672 119.23631836 -252.14216797 118.60081055 -251.57373047 117.94604492 C-240.16206142 105.658728 -221.80060471 95.69470349 -205.24560547 92.87182617 C-203.92560547 92.87182617 -202.60560547 92.87182617 -201.24560547 92.87182617 C-201.21982422 92.00041992 -201.19404297 91.12901367 -201.16748047 90.23120117 C-200.42042933 74.54312735 -195.9433331 63.13207593 -184.62060547 52.12182617 C-175.07296169 43.87546922 -164.6884381 40.93596095 -152.43310547 40.30932617 C-151.64484375 40.26614258 -150.85658203 40.22295898 -150.04443359 40.1784668 C-148.11166332 40.07304296 -146.1786552 39.97199523 -144.24560547 39.87182617 C-143.97748047 39.14479492 -143.70935547 38.41776367 -143.43310547 37.66870117 C-138.6221471 25.32479484 -131.50817622 15.28954886 -122.24560547 5.87182617 C-121.48634766 5.09967773 -120.72708984 4.3275293 -119.94482422 3.53198242 C-87.6543274 -27.3844507 -34.14922986 -27.94072515 0 0 Z " fill="#5DAB23" transform="translate(278.24560546875,51.128173828125)"/>
<path d="M0 0 C3.88446678 2.58964452 6.69907021 5.64814041 8.8125 9.875 C9.40740278 15.59521903 9.01978341 19.94952904 5.8125 24.875 C3.8125 27.25 3.8125 27.25 1.8125 28.875 C0.8225 28.875 -0.1675 28.875 -1.1875 28.875 C-1.1875 42.405 -1.1875 55.935 -1.1875 69.875 C3.7625 69.875 8.7125 69.875 13.8125 69.875 C13.72548828 66.82185547 13.72548828 66.82185547 13.63671875 63.70703125 C13.60193854 61.72455911 13.56734063 59.74207924 13.5378418 57.75952148 C13.51277383 56.38692898 13.47870918 55.01446898 13.43530273 53.64233398 C13.37432469 51.66449304 13.34888991 49.68565816 13.32421875 47.70703125 C13.29803467 46.51827393 13.27185059 45.3295166 13.24487305 44.10473633 C13.98091495 39.91673706 15.55153819 38.51294819 18.8125 35.875 C22.2578125 34.29296875 22.2578125 34.29296875 25.9375 33.0625 C27.15695312 32.64355469 28.37640625 32.22460938 29.6328125 31.79296875 C32.8125 30.875 32.8125 30.875 35.8125 30.875 C35.874375 29.84375 35.93625 28.8125 36 27.75 C36.97522873 23.09890915 38.4357014 21.17675863 41.8125 17.875 C46.24072521 14.98702704 49.56179138 14.24129379 54.8125 14.875 C60.60191212 16.63171093 64.0703687 19.49260837 66.96484375 24.80078125 C68.58970895 28.77683388 68.50328785 31.92389176 67.078125 35.94921875 C64.84331096 40.90427775 62.18606388 44.47904253 57 46.625 C47.90393687 47.66455007 47.90393687 47.66455007 43.875 44.75 C40.44224058 42.64831056 40.01495686 42.70333221 36.3125 43.5625 C35.6009375 43.77261719 34.889375 43.98273438 34.15625 44.19921875 C31.43050203 44.98514275 28.6106926 45.40863457 25.8125 45.875 C25.8125 53.795 25.8125 61.715 25.8125 69.875 C28.08769531 69.82859375 30.36289062 69.7821875 32.70703125 69.734375 C34.9111915 69.70317801 37.11532714 69.67889128 39.31958008 69.65527344 C40.85126762 69.6351602 42.38287839 69.6078655 43.91430664 69.57324219 C46.11624073 69.52470685 48.31715982 69.50203004 50.51953125 69.484375 C51.20400833 69.46372986 51.88848541 69.44308472 52.59370422 69.42181396 C55.60736314 69.42039228 57.38256084 69.52220718 59.75 71.46484375 C61.18066417 74.71013711 61.15051812 77.28424118 61.10546875 80.828125 C61.10122391 81.48834656 61.09697906 82.14856812 61.09260559 82.82879639 C61.07587435 84.92795391 61.03823551 87.02613496 61 89.125 C60.98494584 90.55206942 60.97125871 91.97915396 60.95898438 93.40625 C60.92854608 96.89650793 60.86982299 100.38466707 60.8125 103.875 C68.4025 103.875 75.9925 103.875 83.8125 103.875 C84.4725 100.905 85.1325 97.935 85.8125 94.875 C86.245625 93.2971875 86.245625 93.2971875 86.6875 91.6875 C87.10396018 88.6927501 87.10396018 88.6927501 84.875 86.0625 C82.14660225 81.8458853 81.87700907 78.76770034 82.8125 73.875 C84.6131023 69.17020044 87.19801389 65.86135989 91.5625 63.3125 C96.11883161 61.37820828 100.09728706 61.5277963 104.8125 62.875 C109.80584845 65.32456717 112.97145739 68.60010262 114.8125 73.875 C115.6212305 78.61185006 115.31689864 81.88488416 113.125 86.1875 C110.03397605 89.77977108 107.64322623 92.52976345 102.87109375 93.4296875 C99.42191478 95.05956773 99.21335971 95.49812971 97.87109375 98.8671875 C97.3077453 100.48697999 96.7680811 102.11516631 96.25 103.75 C95.72172547 105.37723979 95.17909715 106.99990104 94.62109375 108.6171875 C94.27776001 109.69782471 94.27776001 109.69782471 93.92749023 110.80029297 C92.35214197 113.73160665 90.62018604 115.10340767 87.8125 116.875 C84.76635742 117.32910156 84.76635742 117.32910156 81.41796875 117.265625 C80.21591797 117.25273437 79.01386719 117.23984375 77.77539062 117.2265625 C76.52951172 117.19304687 75.28363281 117.15953125 74 117.125 C72.73478516 117.10695313 71.46957031 117.08890625 70.16601562 117.0703125 C67.04785263 117.02324589 63.93007962 116.95150502 60.8125 116.875 C60.8125 121.495 60.8125 126.115 60.8125 130.875 C74.0125 130.875 87.2125 130.875 100.8125 130.875 C101.4725 129.225 102.1325 127.575 102.8125 125.875 C106.96191599 121.94397433 109.63069431 121.03661524 115.1875 120.625 C119.79741429 120.94292512 122.92389066 122.01184361 126.26171875 125.3046875 C130.07990225 129.70270975 131.12992415 133.00614166 131.0234375 138.8203125 C130.53758058 143.55291884 128.29507414 146.65540809 124.8125 149.6875 C120.90048057 152.54001417 117.85578054 153.28533357 113.01171875 153.22265625 C109.04183862 152.59509083 105.70743875 150.6272305 102.8125 147.875 C101.8225 145.4 101.8225 145.4 100.8125 142.875 C87.6125 142.875 74.4125 142.875 60.8125 142.875 C60.8125 147.495 60.8125 152.115 60.8125 156.875 C63.63167969 156.78798828 63.63167969 156.78798828 66.5078125 156.69921875 C68.98435015 156.65231463 71.46091467 156.60681518 73.9375 156.5625 C75.79375 156.4996582 75.79375 156.4996582 77.6875 156.43554688 C87.97487097 156.29727576 87.97487097 156.29727576 91.5 158.85546875 C94.81829351 163.18830807 95.95301255 167.58176799 97.26953125 172.8125 C98.47184026 177.11787703 98.47184026 177.11787703 101.68896484 179.97973633 C103.7955105 180.77177779 103.7955105 180.77177779 105.89160156 181.27514648 C109.7083533 182.46703248 111.86205138 185.56247572 114.125 188.6875 C115.72867347 193.79009741 115.34941489 198.29544472 113.25 203.125 C110.94686314 207.21588645 108.30723182 209.47370126 103.8125 210.875 C98.14518188 211.73398376 93.62914222 211.15907424 88.8125 207.875 C84.84390367 203.93866868 82.96326388 200.7143193 82.5 195.0625 C82.51263835 191.59959288 82.81619489 190.86951365 84.875 187.8125 C87.14412875 184.99120359 87.14412875 184.99120359 86.6875 181.5 C85.75087484 177.61969575 84.78064036 173.74756143 83.8125 169.875 C76.2225 169.875 68.6325 169.875 60.8125 169.875 C60.85890625 171.99421875 60.9053125 174.1134375 60.953125 176.296875 C60.98434368 178.3554444 61.00861797 180.41398717 61.03222656 182.47265625 C61.05230982 183.90051121 61.07958252 185.32828425 61.11425781 186.75585938 C61.16292669 188.81140368 61.18549967 190.86585855 61.203125 192.921875 C61.22407227 194.15776367 61.24501953 195.39365234 61.26660156 196.66699219 C60.8125 199.875 60.8125 199.875 59.23632812 202.28515625 C55.90958932 204.46723956 53.6002634 204.3305371 49.640625 204.265625 C48.6169986 204.25713531 48.6169986 204.25713531 47.57269287 204.24847412 C45.40190238 204.22615636 43.23278794 204.17597508 41.0625 204.125 C39.5872635 204.10492876 38.11200101 204.08667907 36.63671875 204.0703125 C33.02748728 204.02971372 29.42185993 203.9514335 25.8125 203.875 C26.1425 211.465 26.4725 219.055 26.8125 226.875 C28.545 227.555625 30.2775 228.23625 32.0625 228.9375 C33.03703125 229.32035156 34.0115625 229.70320312 35.015625 230.09765625 C37.89398103 230.89764626 39.08930329 230.97624878 41.8125 229.875 C42.534375 229.359375 43.25625 228.84375 44 228.3125 C47.98555311 226.27543952 51.41863676 226.31507407 55.8125 226.875 C61.48726113 228.83934039 65.12650331 232.50300662 67.8125 237.875 C68.35868388 244.210733 67.50693709 248.62378753 63.8125 253.875 C60.10447404 257.58302596 56.95318165 258.19024771 51.875 258.4375 C47.02261752 258.26291056 43.84725058 257.5556816 40.1484375 254.37109375 C36.8492868 250.67643083 35.8125 247.77888414 35.8125 242.875 C35.12285156 242.75769531 34.43320312 242.64039063 33.72265625 242.51953125 C30.43383774 241.7911352 27.40471988 240.74323525 24.25 239.5625 C23.13496094 239.15386719 22.01992188 238.74523437 20.87109375 238.32421875 C17.63405879 236.79045123 16.01783422 235.6782914 13.8125 232.875 C13.35839844 229.75878906 13.35839844 229.75878906 13.421875 226.140625 C13.43476563 224.84511719 13.44765625 223.54960937 13.4609375 222.21484375 C13.49435634 220.85155176 13.52821609 219.48827051 13.5625 218.125 C13.58257293 216.74611936 13.60082233 215.36721088 13.6171875 213.98828125 C13.66433984 210.61688862 13.7360826 207.24585627 13.8125 203.875 C8.8625 203.875 3.9125 203.875 -1.1875 203.875 C-1.24248868 209.44451316 -1.24489846 215.01071919 -1.19970703 220.58032227 C-1.19162259 222.47256771 -1.19761829 224.36492997 -1.21826172 226.25708008 C-1.77703748 236.89573171 -1.77703748 236.89573171 1.625 246.57373047 C3.724891 248.43420004 3.724891 248.43420004 6 249.67163086 C7.8125 250.875 7.8125 250.875 8.546875 252.78735352 C9.34290026 259.04361455 9.38666128 263.51375809 5.8125 268.875 C1.93423673 272.79564866 -1.31869169 274.6849517 -6.875 275.25 C-11.82035448 275.18613011 -15.54617005 273.14493044 -19.1875 269.875 C-23.14504116 264.51961173 -22.97002264 259.30038038 -22.1875 252.875 C-19.76025768 247.66092391 -18.68188039 247.07275216 -13.1875 244.875 C-13.1875 231.345 -13.1875 217.815 -13.1875 203.875 C-17.8075 203.875 -22.4275 203.875 -27.1875 203.875 C-27.14109375 205.83824219 -27.0946875 207.80148437 -27.046875 209.82421875 C-27.00935628 212.40363063 -26.97295623 214.98305895 -26.9375 217.5625 C-26.90398437 218.85607422 -26.87046875 220.14964844 -26.8359375 221.48242188 C-26.81660156 223.35317383 -26.81660156 223.35317383 -26.796875 225.26171875 C-26.7654541 226.98201294 -26.7654541 226.98201294 -26.73339844 228.73706055 C-27.28973361 232.58145624 -28.4534698 234.15965887 -31.1875 236.875 C-33.07861328 237.9934082 -33.07861328 237.9934082 -35.0078125 238.67578125 C-35.70777344 238.93037109 -36.40773438 239.18496094 -37.12890625 239.44726562 C-37.84949219 239.69154297 -38.57007813 239.93582031 -39.3125 240.1875 C-40.04082031 240.45111328 -40.76914063 240.71472656 -41.51953125 240.98632812 C-46.82743506 242.875 -46.82743506 242.875 -49.1875 242.875 C-49.496875 244.669375 -49.496875 244.669375 -49.8125 246.5 C-51.03142192 251.43707223 -53.32479609 253.64294163 -57.1875 256.875 C-62.32602448 258.58784149 -68.25007698 259.05313909 -73.359375 257.00390625 C-77.74638533 254.14485038 -79.72317351 250.95707428 -81.1875 245.875 C-81.84918956 241.60710235 -81.52760007 238.53000755 -79.5 234.625 C-76.39691111 230.93484023 -73.01382499 227.18508242 -68.015625 226.63671875 C-60.79919415 226.42897301 -60.79919415 226.42897301 -57.1875 229.0625 C-54.4172239 231.17310152 -54.4172239 231.17310152 -51.77734375 230.5078125 C-50.05396203 229.97480784 -48.34348648 229.39736465 -46.65234375 228.76953125 C-44.1875 227.875 -44.1875 227.875 -39.1875 226.875 C-39.1875 219.285 -39.1875 211.695 -39.1875 203.875 C-41.46269531 203.92140625 -43.73789063 203.9678125 -46.08203125 204.015625 C-48.2861915 204.04682199 -50.49032714 204.07110872 -52.69458008 204.09472656 C-54.22626762 204.1148398 -55.75787839 204.1421345 -57.28930664 204.17675781 C-59.49124073 204.22529315 -61.69215982 204.24796996 -63.89453125 204.265625 C-64.57900833 204.28627014 -65.26348541 204.30691528 -65.96870422 204.32818604 C-68.97302967 204.32960331 -70.75727008 204.22499551 -73.125 202.29882812 C-74.57706001 198.98631623 -74.52489336 196.31632681 -74.48046875 192.703125 C-74.47622391 192.0207074 -74.47197906 191.33828979 -74.46760559 190.63519287 C-74.45086972 188.46471996 -74.41322959 186.29519021 -74.375 184.125 C-74.35994646 182.64975303 -74.34625922 181.17449145 -74.33398438 179.69921875 C-74.30353956 176.09049393 -74.24481619 172.48379725 -74.1875 168.875 C-81.7775 168.875 -89.3675 168.875 -97.1875 168.875 C-100.4067645 178.77867748 -100.4067645 178.77867748 -100.1875 184.875 C-99.6925 185.57625 -99.1975 186.2775 -98.6875 187 C-96.3422175 191.49512479 -96.52399337 195.90963716 -97.1875 200.875 C-99.1898965 204.879793 -101.36748877 207.5337028 -105.1875 209.875 C-110.75570872 211.73106957 -116.21859702 211.78652916 -121.5625 209.3125 C-126.31669256 204.89789262 -128.39788815 201.23222942 -128.6875 194.8125 C-128.47443393 190.13214876 -127.39049222 187.41514929 -124.1875 183.875 C-120.29460957 180.72755667 -118.12593028 179.65774249 -113.1875 179.875 C-113.02894531 179.19695312 -112.87039062 178.51890625 -112.70703125 177.8203125 C-108.51344235 161.0922949 -108.51344235 161.0922949 -102.1875 156.875 C-99.27661133 156.64794922 -99.27661133 156.64794922 -95.76953125 156.6796875 C-93.88911133 156.68935547 -93.88911133 156.68935547 -91.97070312 156.69921875 C-90.00520508 156.72435547 -90.00520508 156.72435547 -88 156.75 C-86.66472013 156.76003361 -85.32943311 156.7691588 -83.99414062 156.77734375 C-80.72518355 156.80094633 -77.45631929 156.83681781 -74.1875 156.875 C-74.1875 152.255 -74.1875 147.635 -74.1875 142.875 C-79.77520717 142.84486834 -85.36025762 142.86045398 -90.94775391 142.91772461 C-92.84679731 142.93083374 -94.74596847 142.9316266 -96.64501953 142.91967773 C-99.38180401 142.9046247 -102.11506621 142.93440604 -104.8515625 142.97265625 C-106.11753769 142.95127342 -106.11753769 142.95127342 -107.40908813 142.92945862 C-110.93716218 143.01537982 -113.26445872 143.07523534 -115.99700928 145.44284058 C-117.59783811 147.29923805 -117.59783811 147.29923805 -118.91635132 149.23509216 C-121.61838918 152.72098892 -125.45327427 152.77982259 -129.5625 153.3125 C-134.38972908 152.72990339 -137.50078343 150.9970843 -141.1875 147.875 C-144.57920597 143.42338592 -144.69788617 138.92948663 -144.54296875 133.5 C-143.90733362 128.80607901 -141.59494968 126.15050127 -138.1875 123.0625 C-133.88483436 120.50779227 -129.11537594 120.19004427 -124.1875 120.875 C-120.67094879 122.70090159 -118.66922932 124.09237356 -116.58691406 127.4753418 C-113.52659455 130.5359727 -111.82641755 130.49111743 -107.63568115 130.59394836 C-106.78137512 130.59001572 -105.92706909 130.58608307 -105.046875 130.58203125 C-103.72360199 130.60471321 -103.72360199 130.60471321 -102.37359619 130.62785339 C-99.56130503 130.67077476 -96.75008625 130.67957248 -93.9375 130.6875 C-92.02861723 130.71064092 -90.11976004 130.73600541 -88.2109375 130.76367188 C-83.53636335 130.82656794 -78.86246001 130.85886854 -74.1875 130.875 C-74.1875 125.925 -74.1875 120.975 -74.1875 115.875 C-76.23453125 115.92140625 -78.2815625 115.9678125 -80.390625 116.015625 C-82.37970027 116.04344423 -84.36878043 116.07111952 -86.35791016 116.09472656 C-87.7372668 116.11480642 -89.11653869 116.14207666 -90.49560547 116.17675781 C-92.48106979 116.22542817 -94.46716254 116.24586418 -96.453125 116.265625 C-98.24411621 116.2970459 -98.24411621 116.2970459 -100.07128906 116.32910156 C-103.83790048 115.78022212 -104.93103149 114.88615682 -107.1875 111.875 C-108.06542969 109.90795898 -108.06542969 109.90795898 -108.609375 107.87109375 C-108.83109375 107.13052734 -109.0528125 106.38996094 -109.28125 105.62695312 C-109.71863449 104.08439175 -110.14055867 102.53736256 -110.546875 100.98632812 C-111.81130489 96.65250168 -111.81130489 96.65250168 -115.07275391 93.76806641 C-117.1778816 92.97814338 -117.1778816 92.97814338 -119.27099609 92.47875977 C-123.48913847 91.14991058 -125.83896298 87.39780553 -128.1875 83.875 C-128.88912213 78.6781012 -128.81489539 74.20218256 -126.5625 69.4375 C-123.17816513 65.7859808 -120.64641171 63.19682815 -115.53125 62.52734375 C-110.36436419 62.36761475 -106.21929171 62.31753672 -102.1875 65.875 C-101.259375 66.679375 -100.33125 67.48375 -99.375 68.3125 C-96.32866525 72.13723574 -96.6703249 76.26936841 -96.71875 80.97265625 C-97.24352629 84.22189611 -98.4625797 86.10957818 -100.1875 88.875 C-99.89178568 94.09928627 -98.46852881 98.75088477 -97.1875 103.875 C-89.5975 103.875 -82.0075 103.875 -74.1875 103.875 C-74.22230469 101.67199219 -74.25710937 99.46898437 -74.29296875 97.19921875 C-74.31636783 95.06454769 -74.3345823 92.92989093 -74.35229492 90.79516602 C-74.36737768 89.31202801 -74.38784689 87.82893456 -74.41381836 86.34594727 C-74.45022616 84.21359255 -74.46723073 82.08182765 -74.48046875 79.94921875 C-74.4961792 78.66619873 -74.51188965 77.38317871 -74.52807617 76.0612793 C-74.1875 72.875 -74.1875 72.875 -73.125 70.95117188 C-70.15058108 69.29905007 -67.20333112 69.50718144 -63.89453125 69.58203125 C-62.83548836 69.58839851 -62.83548836 69.58839851 -61.75505066 69.59489441 C-59.50297697 69.61166966 -57.25180258 69.64931757 -55 69.6875 C-53.47201815 69.70254843 -51.94402224 69.71623656 -50.41601562 69.72851562 C-46.67255303 69.75901641 -42.93103144 69.81773351 -39.1875 69.875 C-39.5175 62.285 -39.8475 54.695 -40.1875 46.875 C-43.0028125 45.823125 -43.0028125 45.823125 -45.875 44.75 C-46.93074219 44.35554688 -47.98648438 43.96109375 -49.07421875 43.5546875 C-52.65220355 42.77354653 -54.00336243 43.19448295 -57.1875 44.875 C-61.45344881 46.95032645 -65.49091311 47.62239398 -70.1875 46.875 C-75.47862204 44.12768663 -79.28125244 40.59374267 -81.1875 34.875 C-81.72975459 30.20805478 -81.6573456 26.79728952 -79.5 22.5625 C-75.69008498 18.13476093 -72.46612861 15.0714335 -66.5625 14.5625 C-61.76376242 14.6410248 -58.07079276 16.0766183 -54.1875 18.875 C-50.21041978 23.66789155 -50.21041978 23.66789155 -50.140625 27.34375 C-49.46119208 29.95463761 -49.46119208 29.95463761 -47.48803711 30.86743164 C-45.1402355 31.81558731 -42.78006451 32.64574755 -40.375 33.4375 C-38.7399883 33.99106641 -37.10831336 34.55460584 -35.48046875 35.12890625 C-34.7536792 35.36939697 -34.02688965 35.6098877 -33.27807617 35.85766602 C-30.54449381 37.18790515 -29.03420155 38.44396747 -27.1875 40.875 C-26.73339844 43.99121094 -26.73339844 43.99121094 -26.796875 47.609375 C-26.80976563 48.90488281 -26.82265625 50.20039063 -26.8359375 51.53515625 C-26.86935634 52.89844824 -26.90321609 54.26172949 -26.9375 55.625 C-26.95757293 57.00388064 -26.97582233 58.38278912 -26.9921875 59.76171875 C-27.03933984 63.13311138 -27.1110826 66.50414373 -27.1875 69.875 C-22.5675 69.875 -17.9475 69.875 -13.1875 69.875 C-13.1875 56.345 -13.1875 42.815 -13.1875 28.875 C-14.8375 28.215 -16.4875 27.555 -18.1875 26.875 C-22.07479099 21.93708982 -22.88580627 17.78420569 -22.63671875 11.53125 C-21.93223057 7.36558076 -20.26334931 4.72360978 -17.1875 1.875 C-11.60833041 -1.96842794 -6.2538689 -2.20724785 0 0 Z " fill="#020300" transform="translate(277.1875,88.125)"/>
<path d="M0 0 C2.28309591 1.92219297 4.52920582 3.88301281 6.75439453 5.87182617 C7.73537109 5.35233398 8.71634766 4.8328418 9.72705078 4.29760742 C26.05681511 -4.19974434 41.8512953 -9.53486219 60.44189453 -9.44067383 C62.16218872 -9.433302 62.16218872 -9.433302 63.91723633 -9.42578125 C90.09820644 -9.06495793 113.06442726 1.90701036 132.00439453 19.68432617 C147.12740505 35.60161246 156.63115337 57.13514475 158.75439453 78.87182617 C158.69251953 79.91725586 158.63064453 80.96268555 158.56689453 82.03979492 C158.42897618 85.44034417 158.49388288 87.69587511 159.75439453 90.87182617 C163.18888862 93.59023052 166.76405636 95.51012848 170.62548828 97.54370117 C188.63012241 107.20084632 200.95911475 126.94180411 207.10205078 145.85620117 C212.61273451 164.58067491 213.28685681 186.16859195 206.00439453 204.55932617 C204.71691063 207.97115852 204.47681819 208.64956467 205.75439453 211.87182617 C207.26693915 213.55888369 207.26693915 213.55888369 209.19189453 215.18432617 C217.40713799 223.1640071 223.29793233 232.97649376 227.69189453 243.49682617 C227.96203369 244.13998779 228.23217285 244.78314941 228.51049805 245.44580078 C232.9406816 256.73372336 234.31445345 267.93023767 234.25439453 279.99682617 C234.25125244 281.01113205 234.25125244 281.01113205 234.24804688 282.04592896 C234.07253584 309.63325676 223.40046451 331.80451478 203.90844727 351.21044922 C185.29763113 368.95514557 159.95601187 376.67301016 134.62939453 376.11791992 C121.14177952 375.5817232 109.1518385 372.02769452 96.75439453 366.87182617 C96.90585937 367.44924561 97.05732422 368.02666504 97.21337891 368.62158203 C105.68182719 401.50847525 105.68182719 401.50847525 97.58642578 415.34838867 C91.68413337 423.47819869 83.66285664 428.26586748 73.75439453 429.87182617 C63.64797544 430.67909774 54.56328757 429.21634248 46.57080078 422.66088867 C39.42283589 415.62052755 37.1077377 407.59979179 34.86376953 398.10229492 C30.33365848 379.08681613 22.60458419 363.74171738 8.75439453 349.87182617 C7.65804687 348.75807617 7.65804687 348.75807617 6.53955078 347.62182617 C-2.77918487 338.73692365 -15.65570831 331.7232509 -28.24560547 328.87182617 C-32.86687587 329.1347303 -35.57434389 330.4672198 -39.30810547 333.12182617 C-57.70889331 345.27282004 -81.85296594 348.39104446 -103.26123047 344.12182617 C-127.11440711 338.84798842 -147.92321043 325.59134308 -161.24560547 304.87182617 C-172.24560547 285.87641333 -172.24560547 285.87641333 -172.24560547 276.87182617 C-172.82342773 277.03263672 -173.40125 277.19344727 -173.99658203 277.35913086 C-195.36214926 282.2297009 -219.32555746 273.83440982 -237.24560547 262.87182617 C-240.78934344 260.41365153 -244.03599151 257.75028948 -247.24560547 254.87182617 C-248.14021484 254.07131836 -249.03482422 253.27081055 -249.95654297 252.44604492 C-267.17496105 236.16812866 -277.45494518 214.4828383 -278.62841797 190.76245117 C-279.39017523 163.49693789 -271.47665216 140.49651748 -253.24560547 119.87182617 C-252.69388672 119.23631836 -252.14216797 118.60081055 -251.57373047 117.94604492 C-240.16206142 105.658728 -221.80060471 95.69470349 -205.24560547 92.87182617 C-203.92560547 92.87182617 -202.60560547 92.87182617 -201.24560547 92.87182617 C-201.21982422 92.00041992 -201.19404297 91.12901367 -201.16748047 90.23120117 C-200.42042933 74.54312735 -195.9433331 63.13207593 -184.62060547 52.12182617 C-175.07296169 43.87546922 -164.6884381 40.93596095 -152.43310547 40.30932617 C-151.64484375 40.26614258 -150.85658203 40.22295898 -150.04443359 40.1784668 C-148.11166332 40.07304296 -146.1786552 39.97199523 -144.24560547 39.87182617 C-143.97748047 39.14479492 -143.70935547 38.41776367 -143.43310547 37.66870117 C-138.6221471 25.32479484 -131.50817622 15.28954886 -122.24560547 5.87182617 C-121.48634766 5.09967773 -120.72708984 4.3275293 -119.94482422 3.53198242 C-87.6543274 -27.3844507 -34.14922986 -27.94072515 0 0 Z M-110.24560547 11.87182617 C-111.07576172 12.62206055 -111.90591797 13.37229492 -112.76123047 14.14526367 C-118.72734624 19.80771487 -123.21789393 25.71489258 -127.24560547 32.87182617 C-127.70708984 33.67233398 -128.16857422 34.4728418 -128.64404297 35.29760742 C-134.21196715 45.60670341 -136.62891163 56.35103173 -136.97216797 68.00854492 C-137.24560547 70.87182617 -137.24560547 70.87182617 -139.24560547 73.87182617 C-142.80810547 74.12182617 -142.80810547 74.12182617 -146.24560547 73.87182617 C-147.24560547 72.87182617 -147.24560547 72.87182617 -147.35913086 70.92236328 C-147.35127563 69.67338257 -147.35127563 69.67338257 -147.34326172 68.39916992 C-147.33842773 67.05048828 -147.33842773 67.05048828 -147.33349609 65.67456055 C-147.32092773 64.25626953 -147.32092773 64.25626953 -147.30810547 62.80932617 C-147.30359375 61.85993164 -147.29908203 60.91053711 -147.29443359 59.93237305 C-147.28260657 57.57879552 -147.26612572 55.2253414 -147.24560547 52.87182617 C-158.84415063 51.94641033 -167.62453053 54.49560799 -176.62060547 61.99682617 C-182.5257777 67.67377919 -187.99092496 75.46071939 -188.32739258 83.93066406 C-188.30942627 84.64472412 -188.29145996 85.35878418 -188.27294922 86.09448242 C-188.26070313 86.88016602 -188.24845703 87.66584961 -188.23583984 88.4753418 C-188.20059797 90.11865734 -188.16151672 91.76189491 -188.11865234 93.4050293 C-188.10769531 94.18942383 -188.09673828 94.97381836 -188.08544922 95.78198242 C-188.06861084 96.49491455 -188.05177246 97.20784668 -188.03442383 97.94238281 C-188.24560547 99.87182617 -188.24560547 99.87182617 -190.24560547 102.87182617 C-192.71351406 103.46126634 -195.05642374 103.8913469 -197.55810547 104.24682617 C-213.80696829 106.9400583 -227.8899583 114.04513868 -240.24560547 124.87182617 C-240.93396484 125.46479492 -241.62232422 126.05776367 -242.33154297 126.66870117 C-256.21946174 139.51365371 -265.05794297 159.13914943 -266.24560547 177.87182617 C-266.32294922 179.01393555 -266.40029297 180.15604492 -266.47998047 181.33276367 C-267.20986188 201.64779634 -260.0656831 222.75525423 -246.24560547 237.87182617 C-245.04484375 239.20987305 -245.04484375 239.20987305 -243.81982422 240.57495117 C-231.39824643 253.73355456 -213.48067149 264.39061954 -194.99536133 265.11083984 C-190.32744178 265.20108392 -185.66325432 265.13510279 -180.99560547 265.05932617 C-179.36410751 265.04424074 -177.73259594 265.03055921 -176.10107422 265.01831055 C-172.14890815 264.98563637 -168.19741185 264.93407191 -164.24560547 264.87182617 C-162.3119817 269.91702843 -160.58365184 274.95508375 -158.99560547 280.12182617 C-152.33296228 300.62147947 -137.84704203 315.98049074 -118.9206543 325.82910156 C-101.24079513 334.48383574 -79.92396173 335.98263444 -61.22070312 329.62133789 C-53.6597144 326.75208753 -46.12591763 323.2418671 -39.84326172 318.11791992 C-35.76663651 315.14434105 -32.12832659 315.15705122 -27.24560547 315.87182617 C-24.39807818 316.50821541 -21.72222908 317.40161627 -18.99560547 318.43432617 C-18.26253174 318.70462646 -17.52945801 318.97492676 -16.77416992 319.25341797 C3.49880649 326.95975235 21.19388548 340.38618127 32.75439453 358.87182617 C33.34994141 359.80768555 33.94548828 360.74354492 34.55908203 361.70776367 C42.09312981 374.02738686 46.23630407 387.08484325 48.69189453 401.24682617 C49.98905267 407.88147106 53.21640474 412.03783324 58.75439453 415.87182617 C65.14404252 418.00170883 72.44526538 417.77697344 78.69189453 415.24682617 C84.06428611 412.50223482 87.38201117 408.41901667 89.75439453 402.87182617 C91.44537925 392.75160964 87.71734105 382.21821015 85.25439453 372.49682617 C84.60777679 369.91276614 83.96490956 367.32789382 83.32849121 364.74130249 C82.9343401 363.14254245 82.5340154 361.5452877 82.12658691 359.94985962 C80.30927748 352.63867303 80.30927748 352.63867303 80.75439453 348.87182617 C82.75439453 346.87182617 82.75439453 346.87182617 85.56298828 346.55151367 C89.24175201 346.92074088 90.83103595 347.86472932 93.81689453 349.99682617 C107.59050621 359.21656082 121.29116755 363.42864502 137.81689453 363.18432617 C138.91066406 363.18754883 140.00443359 363.19077148 141.13134766 363.1940918 C151.32167408 363.12740911 160.7155949 361.78911619 170.12939453 357.80932617 C171.21003174 357.35795288 171.21003174 357.35795288 172.3125 356.89746094 C179.48866228 353.76652086 185.56838954 349.65353693 191.75439453 344.87182617 C192.40408203 344.40518555 193.05376953 343.93854492 193.72314453 343.45776367 C209.39810665 331.40578808 218.14660717 311.51855035 221.30908203 292.54370117 C223.93775026 270.86871756 219.74509657 249.61853837 206.75439453 231.87182617 C206.05572266 230.91663086 205.35705078 229.96143555 204.63720703 228.97729492 C201.85091111 225.28933891 201.85091111 225.28933891 198.75439453 221.87182617 C197.76439453 221.87182617 196.77439453 221.87182617 195.75439453 221.87182617 C195.15626953 222.84120117 194.55814453 223.81057617 193.94189453 224.80932617 C191.75439453 227.87182617 191.75439453 227.87182617 188.69189453 228.93432617 C185.75439453 228.87182617 185.75439453 228.87182617 183.81689453 227.80932617 C182.2257725 224.90786835 182.99383608 223.0343524 183.75439453 219.87182617 C185.17236328 217.44213867 185.17236328 217.44213867 186.94189453 214.99682617 C193.89430058 204.46807956 197.79359567 192.43611899 198.75439453 179.87182617 C198.84849609 178.65237305 198.94259766 177.43291992 199.03955078 176.17651367 C199.859369 155.02940775 191.84440586 135.50516532 177.75439453 119.87182617 C177.19107422 119.23889648 176.62775391 118.6059668 176.04736328 117.95385742 C170.94395662 112.53970469 164.27357762 106.22009348 156.75439453 104.87182617 C156.48626953 105.71745117 156.21814453 106.56307617 155.94189453 107.43432617 C154.70653503 111.01036684 153.27740653 114.41043525 151.75439453 117.87182617 C149.44439453 117.87182617 147.13439453 117.87182617 144.75439453 117.87182617 C143.7830421 113.50074023 143.75334487 110.29099475 144.70751953 105.90698242 C149.22449438 82.29195533 144.99634086 59.33702995 131.51611328 39.47729492 C118.98712858 22.27428484 102.37625885 10.5541282 81.75439453 4.87182617 C80.69478516 4.56438477 80.69478516 4.56438477 79.61376953 4.25073242 C57.71573632 -1.14929278 34.50831046 4.63532163 15.48486328 15.78979492 C10.3117429 19.02445484 5.79622162 23.08483421 1.21923828 27.09057617 C-2.03982351 29.44577772 -4.32023109 29.17969867 -8.24560547 28.87182617 C-8.86099008 21.61028771 -8.86099008 21.61028771 -5.74560547 17.87182617 C-4.92060547 17.21182617 -4.09560547 16.55182617 -3.24560547 15.87182617 C-4.75367643 11.71520557 -7.70398565 9.79321581 -11.24560547 7.43432617 C-11.83011475 7.03963135 -12.41462402 6.64493652 -13.0168457 6.23828125 C-42.71039872 -13.4776539 -83.37926617 -12.67148379 -110.24560547 11.87182617 Z " fill="#000100" transform="translate(278.24560546875,51.128173828125)"/>
<path d="M0 0 C36.3 0 72.6 0 110 0 C110 36.3 110 72.6 110 110 C73.7 110 37.4 110 0 110 C0 73.7 0 37.4 0 0 Z " fill="#5CAA23" transform="translate(215,170)"/>
<path d="M0 0 C36.3 0 72.6 0 110 0 C110 36.3 110 72.6 110 110 C73.7 110 37.4 110 0 110 C0 73.7 0 37.4 0 0 Z M15.5766449 15.5823822 C13.41362058 18.89915068 13.49213591 21.23477531 13.48242188 25.18359375 C13.4754126 25.89951691 13.46840332 26.61544006 13.46118164 27.35305786 C13.44360452 29.71493543 13.45522225 32.07561067 13.46875 34.4375 C13.46605498 36.08130116 13.46217247 37.72510077 13.45715332 39.36889648 C13.4512587 42.81216628 13.45981972 46.25502071 13.47851562 49.69824219 C13.50130558 54.11033693 13.48818225 58.52145842 13.46422577 62.93351746 C13.44976657 66.32734501 13.45437424 69.72094209 13.46473694 73.11477661 C13.46740391 74.74146642 13.46413547 76.36817721 13.45481873 77.99484253 C13.44465058 80.26926028 13.46015523 82.54210554 13.48242188 84.81640625 C13.48560425 86.11006104 13.48878662 87.40371582 13.49206543 88.73657227 C13.77249097 92.0154484 13.77249097 92.0154484 15.58337402 94.4176178 C18.90136018 96.59020152 21.22908022 96.50120103 25.18359375 96.50170898 C26.25747849 96.50981346 26.25747849 96.50981346 27.35305786 96.51808167 C29.71496166 96.53056914 32.07564646 96.51407924 34.4375 96.49609375 C36.08129948 96.49624874 37.72509933 96.49773771 39.36889648 96.50050354 C42.81217627 96.50188753 46.25503951 96.48932983 49.69824219 96.46655273 C54.11021423 96.43816782 58.5214942 96.44090528 62.93351746 96.45364285 C66.32733056 96.46060037 69.72098391 96.45280995 73.11477661 96.44038582 C74.74145902 96.43587202 76.36815858 96.4355339 77.99484253 96.43945122 C80.26905422 96.44236424 82.5423148 96.42585348 84.81640625 96.40405273 C86.75688843 96.39594826 86.75688843 96.39594826 88.73657227 96.38768005 C92.27234002 95.96764727 93.73936776 95.75595142 96 93 C96.39844254 90.43556668 96.53738564 88.29573175 96.50170898 85.73046875 C96.50711197 84.99357819 96.51251495 84.25668762 96.51808167 83.49746704 C96.53059437 81.06040341 96.51406229 78.62451537 96.49609375 76.1875 C96.49624868 74.49503518 96.49773667 72.80256999 96.50050354 71.11010742 C96.50188866 67.56250328 96.48931086 64.01530287 96.46655273 60.46777344 C96.43816752 55.91779724 96.44090379 51.36849204 96.45364285 46.81846619 C96.46059409 43.3234686 96.45281714 39.82862643 96.44038582 36.33364868 C96.4358659 34.65590002 96.43553923 32.97813471 96.43945122 31.30038452 C96.44235807 28.95641824 96.42588287 26.61338029 96.40405273 24.26953125 C96.40855438 23.57437408 96.41305603 22.87921692 96.41769409 22.16299438 C96.37622452 19.48646781 96.24094798 17.43132431 94.92236328 15.07090759 C91.91650614 13.39640868 89.25766771 13.61001176 85.83813477 13.59594727 C85.11260406 13.58908401 84.38707336 13.58222076 83.63955688 13.57514954 C81.23997454 13.55684046 78.84104349 13.56072478 76.44140625 13.56640625 C74.77375576 13.56184623 73.10610716 13.55654119 71.4384613 13.55052185 C67.94221364 13.54158258 64.44619429 13.54402286 60.94995117 13.55395508 C56.46948552 13.56544293 51.9898082 13.5452408 47.50944614 13.51603794 C44.0650278 13.4976907 40.62079886 13.49796546 37.17634392 13.50367546 C35.52452425 13.50382887 33.87269191 13.49776801 32.22091866 13.48538399 C29.91052969 13.47050381 27.60160299 13.48112748 25.29125977 13.49829102 C23.97682388 13.49845718 22.662388 13.49862335 21.30812073 13.49879456 C17.98999001 13.76737332 17.98999001 13.76737332 15.5766449 15.5823822 Z " fill="#5DAA23" transform="translate(215,170)"/>
<path d="M0 0 C0.72728302 -0.00540298 1.45456604 -0.01080597 2.20388794 -0.01637268 C4.60305728 -0.02885987 7.00102665 -0.01237195 9.40014648 0.00561523 C11.06876183 0.00546026 12.73737754 0.00397157 14.4059906 0.00120544 C17.9005426 -0.00017848 21.39468413 0.01237936 24.88916016 0.03515625 C29.37072942 0.06356314 33.85161782 0.06079765 38.33323765 0.04806614 C41.77762174 0.04111549 45.22184812 0.04889079 48.66621208 0.06132317 C50.31884087 0.06584211 51.97148656 0.0661706 53.6241169 0.06225777 C55.93205689 0.05935092 58.23905408 0.07582512 60.546875 0.09765625 C62.51733543 0.10576073 62.51733543 0.10576073 64.52760315 0.11402893 C67.70874023 0.50170898 67.70874023 0.50170898 69.63110352 1.57261658 C71.28380185 4.53113474 71.1341668 7.47063345 71.11279297 10.77124023 C71.11965622 11.5081308 71.12651947 12.24502136 71.1335907 13.00424194 C71.15189884 15.44109337 71.14801609 17.87730352 71.14233398 20.31420898 C71.14689355 22.00667532 71.15219845 23.69913979 71.15821838 25.39160156 C71.1671571 28.93912273 71.16471741 32.48641887 71.15478516 36.03393555 C71.14328842 40.583997 71.16351338 45.13328322 71.19270229 49.6832428 C71.21103164 53.17823229 71.21077851 56.67303482 71.20506477 60.1680603 C71.20491119 61.84582609 71.21098613 63.52360427 71.22335625 65.20132446 C71.23820533 67.54543993 71.22763626 69.88810813 71.21044922 72.23217773 C71.22011719 72.9273349 71.22978516 73.62249207 71.23974609 74.3387146 C71.19389001 77.31957164 71.04554283 79.09111076 69.12635803 81.43080139 C65.82266692 82.89420388 63.13893085 82.89066865 59.52514648 82.90576172 C58.80922333 82.91262497 58.09330017 82.91948822 57.35568237 82.92655945 C54.99399878 82.94483056 52.6329792 82.94099018 50.27124023 82.93530273 C48.62743921 82.93986404 46.98364009 82.94516946 45.33984375 82.95118713 C41.89664964 82.96011854 38.45368748 82.95769444 35.01049805 82.94775391 C30.59843811 82.93625728 26.18717768 82.95648557 21.77522278 82.98567104 C18.38141803 83.00401696 14.98780551 83.00374396 11.59396362 82.99803352 C9.96726356 82.99788015 8.34055061 83.00393805 6.71389771 83.016325 C4.43953255 83.03120563 2.16665267 83.02058197 -0.10766602 83.00341797 C-2.04814819 83.00316872 -2.04814819 83.00316872 -4.02783203 83.00291443 C-7.29125977 82.50170898 -7.29125977 82.50170898 -9.70788574 80.91932678 C-11.87992647 77.60288718 -11.79911306 75.27132113 -11.80883789 71.31811523 C-11.81584717 70.60219208 -11.82285645 69.88626892 -11.83007812 69.14865112 C-11.84765524 66.78677355 -11.83603752 64.42609832 -11.82250977 62.06420898 C-11.82520479 60.42040782 -11.8290873 58.77660821 -11.83410645 57.1328125 C-11.84000107 53.6895427 -11.83144005 50.24668827 -11.81274414 46.8034668 C-11.78995418 42.39137206 -11.80307752 37.98025056 -11.827034 33.56819153 C-11.8414932 30.17436397 -11.83688552 26.7807669 -11.82652283 23.38693237 C-11.82385586 21.76024256 -11.82712429 20.13353177 -11.83644104 18.50686646 C-11.84660919 16.2324487 -11.83110453 13.95960344 -11.80883789 11.68530273 C-11.80565552 10.39164795 -11.80247314 9.09799316 -11.79919434 7.76513672 C-11.29125977 4.50170898 -11.29125977 4.50170898 -9.71461487 2.08409119 C-6.36606953 -0.10241402 -3.98719685 0.00050405 0 0 Z M0.70874023 12.50170898 C0.70874023 31.64170898 0.70874023 50.78170898 0.70874023 70.50170898 C19.84874023 70.50170898 38.98874023 70.50170898 58.70874023 70.50170898 C58.70874023 51.36170898 58.70874023 32.22170898 58.70874023 12.50170898 C39.56874023 12.50170898 20.42874023 12.50170898 0.70874023 12.50170898 Z " fill="#010300" transform="translate(240.291259765625,183.498291015625)"/>
<path d="M0 0 C2.625 0.375 2.625 0.375 5 1 C5.625 3.375 5.625 3.375 6 6 C5.34 6.66 4.68 7.32 4 8 C1.375 7.625 1.375 7.625 -1 7 C-1.625 4.625 -1.625 4.625 -2 2 C-1.34 1.34 -0.68 0.68 0 0 Z " fill="#559C20" transform="translate(327,115)"/>
<path d="M0 0 C2.625 0.375 2.625 0.375 5 1 C5.625 3.375 5.625 3.375 6 6 C5.34 6.66 4.68 7.32 4 8 C1.375 7.625 1.375 7.625 -1 7 C-1.625 4.625 -1.625 4.625 -2 2 C-1.34 1.34 -0.68 0.68 0 0 Z " fill="#549B20" transform="translate(210,115)"/>
<path d="M0 0 C2.625 0.375 2.625 0.375 5 1 C5.625 3.375 5.625 3.375 6 6 C5.34 6.66 4.68 7.32 4 8 C1.375 7.625 1.375 7.625 -1 7 C-1.625 4.625 -1.625 4.625 -2 2 C-1.34 1.34 -0.68 0.68 0 0 Z " fill="#569D20" transform="translate(268,343)"/>
<path d="M0 0 C2.625 0.375 2.625 0.375 5 1 C5.625 3.375 5.625 3.375 6 6 C5.34 6.66 4.68 7.32 4 8 C1.375 7.625 1.375 7.625 -1 7 C-1.625 4.625 -1.625 4.625 -2 2 C-1.34 1.34 -0.68 0.68 0 0 Z " fill="#569D20" transform="translate(390,221)"/>
<path d="M0 0 C2.625 0.375 2.625 0.375 5 1 C5.625 3.375 5.625 3.375 6 6 C5.34 6.66 4.68 7.32 4 8 C1.375 7.625 1.375 7.625 -1 7 C-1.625 4.625 -1.625 4.625 -2 2 C-1.34 1.34 -0.68 0.68 0 0 Z " fill="#569D21" transform="translate(146,221)"/>
<path d="M0 0 C2.625 0.375 2.625 0.375 5 1 C5.625 3.375 5.625 3.375 6 6 C5.34 6.66 4.68 7.32 4 8 C1.375 7.625 1.375 7.625 -1 7 C-1.625 4.625 -1.625 4.625 -2 2 C-1.34 1.34 -0.68 0.68 0 0 Z " fill="#569D21" transform="translate(268,99)"/>
<path d="M0 0 C2.5625 0.1875 2.5625 0.1875 4.5625 2.1875 C4.02678571 5.72321429 4.02678571 5.72321429 2.5625 7.1875 C0.0625 7.3125 0.0625 7.3125 -2.4375 7.1875 C-3.4375 6.1875 -3.4375 6.1875 -3.5625 3.6875 C-3.39599509 0.35740177 -3.31519894 0.2550153 0 0 Z " fill="#58A121" transform="translate(211.4375,326.8125)"/>
<path d="M0 0 C3.53571429 0.53571429 3.53571429 0.53571429 5 2 C5.125 4.5 5.125 4.5 5 7 C4 8 4 8 1.5 8.125 C-1 8 -1 8 -2 7 C-2.1875 4.5625 -2.1875 4.5625 -2 2 C-1.34 1.34 -0.68 0.68 0 0 Z " fill="#58A121" transform="translate(163,162)"/>
<path d="M0 0 C2.625 0.375 2.625 0.375 5 1 C6.125 4.75 6.125 4.75 5 7 C3.02 7 1.04 7 -1 7 C-1.625 4.625 -1.625 4.625 -2 2 C-1.34 1.34 -0.68 0.68 0 0 Z " fill="#59A322" transform="translate(327,327)"/>
<path d="M0 0 C1.2065625 0.0309375 1.2065625 0.0309375 2.4375 0.0625 C3.5625 4.8125 3.5625 4.8125 2.4375 7.0625 C0.0625 7.1875 0.0625 7.1875 -2.5625 7.0625 C-3.2225 6.4025 -3.8825 5.7425 -4.5625 5.0625 C-3.80953264 0.09291543 -3.80953264 0.09291543 0 0 Z " fill="#58A222" transform="translate(376.5625,279.9375)"/>
<path d="M0 0 C1.98 0 3.96 0 6 0 C6.625 2.375 6.625 2.375 7 5 C6.34 5.66 5.68 6.32 5 7 C2.375 6.625 2.375 6.625 0 6 C-1.125 2.25 -1.125 2.25 0 0 Z " fill="#59A222" transform="translate(373,163)"/>
<path d="M0 0 C2.5 0.125 2.5 0.125 3.5 1.125 C3.625 3.625 3.625 3.625 3.5 6.125 C2.5 7.125 2.5 7.125 0 7.25 C-2.5 7.125 -2.5 7.125 -3.5 6.125 C-3.625 3.625 -3.625 3.625 -3.5 1.125 C-2.5 0.125 -2.5 0.125 0 0 Z " fill="#5AA622" transform="translate(164.5,279.875)"/>
</svg>
